<svg width="150" height="60" viewBox="0 0 150 60" fill="none" xmlns="http://www.w3.org/2000/svg">
<path d="M27.599 27.3644C27.9886 27.2316 28.3736 27.1033 28.7585 26.9567C30.6788 26.2423 32.8741 25.4042 34.3314 23.902C33.7494 23.4257 33.0253 23.0501 32.3149 22.8028C32.6403 22.9173 33.5935 22.5235 33.9556 22.4639C34.4323 22.386 34.9135 22.3356 35.3947 22.3128C35.94 21.1083 36.0822 19.6931 35.4222 18.5482C34.5744 17.0826 32.6908 16.6934 31.1279 16.7208C30.5229 16.73 29.9225 16.7987 29.3268 16.8949C28.9647 16.9545 28.0114 17.3482 27.6861 17.2339C29.7805 17.962 32.0583 19.8123 30.1288 22.029C29.2259 23.064 28.0527 23.925 26.8152 24.6624C26.8611 24.841 26.8977 25.0197 26.9481 25.2029C27.1361 25.9264 27.3608 26.65 27.599 27.3644Z" fill="#222E5B"/>
<path d="M19.2029 27.9138C15.8757 28.9168 12.7316 29.8557 8.03405 30.6617C3.15772 31.4999 -0.00920382 31.6234 2.0095e-05 31.7563C0.013791 31.9303 5.35755 32.0036 11.5906 31.2113C14.3405 30.8632 17.0582 30.3228 19.7484 29.645C19.6201 29.0404 19.5193 28.4405 19.4368 27.8406C19.3541 27.8634 19.2807 27.8909 19.2029 27.9138Z" fill="#222E5B"/>
<path d="M40.0557 24.1173C39.2079 22.6517 37.3243 22.2625 35.7614 22.2899C35.6423 22.2899 35.5185 22.3037 35.3993 22.3127C35.1473 22.876 34.8126 23.3982 34.4186 23.8195C34.3911 23.847 34.359 23.8744 34.3316 23.9019C35.4682 24.827 36.0364 26.1322 34.7578 27.5978C33.2821 29.2924 31.0868 30.5242 29.0565 31.4906C29.3223 32.2143 29.5836 32.947 29.8402 33.6889C31.0363 33.3363 32.2233 32.9562 33.392 32.521C35.3489 31.7929 37.5993 30.9364 39.0521 29.3793C40.2849 28.0605 41.0228 25.7935 40.0557 24.1173Z" fill="#C21D3F"/>
<path d="M12.6675 36.2308C7.79114 37.0689 4.62422 37.1925 4.63344 37.3253C4.64721 37.4994 9.99098 37.5726 16.224 36.7803C18.0344 36.5513 19.8263 36.2399 21.6091 35.8597C21.4441 35.3285 21.2746 34.8109 21.1003 34.2935C18.6621 34.9897 16.0727 35.6446 12.6675 36.2308Z" fill="#C21D3F"/>
<path d="M32.315 22.8075C33.0254 23.0548 33.7495 23.4303 34.3315 23.9067C34.3591 23.8791 34.3912 23.8517 34.4186 23.8242C34.8127 23.4028 35.1427 22.8808 35.3993 22.3175C34.9181 22.345 34.4369 22.3907 33.9602 22.4686C33.5936 22.5281 32.6403 22.9174 32.315 22.8075Z" fill="#222E5B"/>
<path d="M30.193 37.4583C29.8814 36.2583 29.501 35.0768 29.0977 33.9089C28.8548 33.2036 28.6028 32.5075 28.3507 31.8159C28.2774 31.619 28.2086 31.4221 28.1353 31.2251C27.7 30.0435 27.2645 28.8299 26.8658 27.6117C26.6275 26.8789 26.3937 26.1461 26.1966 25.4088C26.1645 25.2943 26.1417 25.1798 26.1096 25.0653C25.3029 21.942 25.1058 19.2261 25.4955 16.5653C25.9538 13.4327 27.2095 10.4924 29.0335 8.12476C26.6229 9.9063 24.4413 11.8893 22.7593 14.6326C21.4028 16.8492 20.5044 19.336 20.1608 21.8182C19.9041 23.696 19.9088 25.6332 20.17 27.6117C20.248 28.2208 20.3579 28.8345 20.4862 29.4528C20.7245 30.5977 21.0362 31.7565 21.4441 32.9242C21.577 33.3044 21.7099 33.6937 21.8382 34.0829C22.017 34.6141 22.1911 35.15 22.3561 35.695C24.3635 42.18 25.5596 49.4711 22.5394 56.5422L22.3652 56.9498C21.9848 57.8474 21.5081 58.9787 20.9307 60C28.8593 53.8493 32.3058 45.5873 30.193 37.4583Z" fill="#C21D3F"/>
<path d="M11.957 30.5015C12.3971 31.9029 12.9836 33.2585 13.7123 34.55C13.8177 34.7377 13.9277 34.9256 14.0377 35.1087C14.6932 36.1942 15.3348 37.2704 16.0909 38.2872C16.8655 39.3222 17.7454 40.2748 18.6437 41.1999C19.1021 41.6716 19.5649 42.1342 20.0278 42.6013C20.3395 42.9173 21.279 43.5768 21.3844 43.9982C20.8252 41.8227 20.1332 39.6794 19.3358 37.5819L18.6071 35.5072C15.7747 27.4559 15.6052 19.3863 20.4358 12.0632C23.6805 7.14448 28.3553 3.10053 33.3233 0C28.479 2.44104 23.5842 4.90947 19.4411 8.40856C16.4484 10.9366 13.8544 14.06 12.2961 17.6781C10.5592 21.7358 10.6417 26.3202 11.957 30.5015Z" fill="#222E5B"/>
<path d="M57.558 17.051C56.4555 18.1337 55.1101 18.675 53.5218 18.675C51.9333 18.675 50.5879 18.1337 49.4854 17.051C48.383 15.9685 47.8317 14.6473 47.8317 13.0875C47.8317 11.5277 48.383 10.2066 49.4854 9.12391C50.5879 8.04126 51.9333 7.5 53.5218 7.5C55.1101 7.5 56.4555 8.04126 57.558 9.12391C58.6603 10.2066 59.2117 11.5277 59.2117 13.0875C59.2117 14.6473 58.6603 15.9685 57.558 17.051ZM50.7551 15.8505C51.5023 16.5842 52.4245 16.9511 53.5218 16.9511C54.619 16.9511 55.5412 16.5842 56.2883 15.8505C57.0355 15.1168 57.4091 14.1958 57.4091 13.0875C57.4091 11.9792 57.0355 11.0583 56.2883 10.3246C55.5412 9.59078 54.619 9.224 53.5218 9.224C52.4245 9.224 51.5023 9.59078 50.7551 10.3246C50.0079 11.0583 49.6344 11.9792 49.6344 13.0875C49.6344 14.1958 50.0079 15.1168 50.7551 15.8505ZM62.9421 7.70005L61.8449 11.7022H60.4342L61.0612 7.70005H62.9421ZM66.7668 16.9048H70.5757V18.4749H64.4625V17.3667L68.1305 12.3486H64.6193V10.7786H70.419V11.8869L66.7668 16.9048ZM76.5949 10.5785C77.6712 10.5785 78.5908 10.9684 79.3537 11.7483C80.1165 12.5283 80.4979 13.4877 80.4979 14.6268C80.4979 15.7556 80.1165 16.7124 79.3537 17.4975C78.5908 18.2825 77.6712 18.675 76.5949 18.675C75.4036 18.675 74.4892 18.2388 73.8519 17.3667V18.4749H72.159V7.70005H73.8519V11.8715C74.4892 11.0095 75.4036 10.5785 76.5949 10.5785ZM74.5572 16.3892C75.0275 16.8562 75.6178 17.0895 76.3284 17.0895C77.039 17.0895 77.6294 16.8562 78.0997 16.3892C78.5698 15.9223 78.805 15.3348 78.805 14.6268C78.805 13.9187 78.5698 13.3312 78.0997 12.8643C77.6294 12.3974 77.039 12.1639 76.3284 12.1639C75.6178 12.1639 75.0275 12.3974 74.5572 12.8643C74.0869 13.3312 73.8519 13.9187 73.8519 14.6268C73.8519 15.3348 74.0869 15.9223 74.5572 16.3892ZM83.3664 15.3348C83.4918 15.9197 83.7792 16.3687 84.2286 16.6817C84.6778 16.9946 85.2265 17.1511 85.8744 17.1511C86.773 17.1511 87.447 16.833 87.8964 16.1969L89.2914 16.9972C88.5182 18.1157 87.3739 18.675 85.8587 18.675C84.5838 18.675 83.5546 18.2928 82.7707 17.5282C81.987 16.7638 81.5951 15.7966 81.5951 14.6268C81.5951 13.4775 81.9818 12.5155 82.7551 11.7407C83.5284 10.966 84.5211 10.5785 85.7332 10.5785C86.8828 10.5785 87.8259 10.9736 88.5625 11.7637C89.2993 12.554 89.6677 13.5134 89.6677 14.6422C89.6677 14.8166 89.6468 15.0474 89.6049 15.3348H83.3664ZM83.3507 13.9803H87.9592C87.8442 13.3543 87.5803 12.8823 87.1676 12.5642C86.7547 12.2461 86.2714 12.087 85.7176 12.087C85.0907 12.087 84.5682 12.2563 84.1502 12.5949C83.7321 12.9335 83.4657 13.3954 83.3507 13.9803ZM98.0849 18.4749H96.063L92.8497 14.9192V18.4749H91.1568V7.70005H92.8497V14.1803L95.8906 10.7786H97.9596L94.5111 14.5498L98.0849 18.4749ZM100.836 9.30859C100.622 9.51898 100.368 9.62423 100.076 9.62423C99.7831 9.62423 99.5296 9.51898 99.3154 9.30859C99.1012 9.09821 98.9941 8.84947 98.9941 8.56212C98.9941 8.27476 99.0985 8.02589 99.3076 7.81551C99.5166 7.60525 99.7726 7.5 100.076 7.5C100.379 7.5 100.635 7.60525 100.844 7.81551C101.053 8.02589 101.157 8.27476 101.157 8.56212C101.157 8.84947 101.05 9.09821 100.836 9.30859ZM99.2293 18.4749V10.7786H100.922V18.4749H99.2293ZM104.355 12.9028C104.355 13.1593 104.499 13.362 104.786 13.5108C105.073 13.6596 105.423 13.7878 105.836 13.8956C106.249 14.0034 106.664 14.1291 107.082 14.2727C107.5 14.4164 107.853 14.6601 108.14 15.0039C108.428 15.3477 108.571 15.7813 108.571 16.3046C108.571 17.0434 108.281 17.6232 107.702 18.0439C107.122 18.4647 106.393 18.675 105.515 18.675C104.741 18.675 104.078 18.516 103.524 18.1979C102.97 17.8798 102.568 17.4385 102.317 16.8741L103.775 16.0429C104.047 16.7818 104.627 17.1511 105.515 17.1511C106.403 17.1511 106.847 16.8638 106.847 16.2892C106.847 16.0429 106.703 15.8427 106.416 15.6889C106.129 15.535 105.779 15.4041 105.366 15.2963C104.953 15.1886 104.538 15.0629 104.12 14.9192C103.702 14.7756 103.349 14.537 103.062 14.2034C102.774 13.87 102.631 13.4466 102.631 12.9335C102.631 12.2255 102.905 11.656 103.454 11.225C104.002 10.7941 104.684 10.5785 105.499 10.5785C106.147 10.5785 106.724 10.7197 107.231 11.0019C107.738 11.2841 108.127 11.6765 108.399 12.1793L106.973 12.9644C106.701 12.3795 106.21 12.087 105.499 12.087C105.175 12.087 104.903 12.1563 104.684 12.2948C104.465 12.4333 104.355 12.636 104.355 12.9028ZM114.12 12.3795H112.177V16.0736C112.177 16.3917 112.25 16.6201 112.396 16.7587C112.542 16.8972 112.759 16.9741 113.047 16.9896C113.334 17.0049 113.692 17.0023 114.12 16.9818V18.4749C112.825 18.6288 111.894 18.5186 111.33 18.144C110.766 17.7694 110.484 17.0793 110.484 16.0736V12.3795H109.042V10.7786H110.484V9.1163L112.177 8.62372V10.7786H114.12V12.3795ZM119.042 18.675C117.893 18.675 116.916 18.2851 116.111 17.5051C115.306 16.7253 114.904 15.7658 114.904 14.6268C114.904 13.4877 115.306 12.5283 116.111 11.7483C116.916 10.9684 117.893 10.5785 119.042 10.5785C120.202 10.5785 121.182 10.9684 121.981 11.7483C122.781 12.5283 123.18 13.4877 123.18 14.6268C123.18 15.7658 122.781 16.7253 121.981 17.5051C121.182 18.2851 120.202 18.675 119.042 18.675ZM117.302 16.3662C117.772 16.8279 118.352 17.0588 119.042 17.0588C119.732 17.0588 120.312 16.8279 120.782 16.3662C121.252 15.9043 121.487 15.3246 121.487 14.6268C121.487 13.929 121.252 13.3491 120.782 12.8874C120.312 12.4256 119.732 12.1948 119.042 12.1948C118.352 12.1948 117.772 12.4256 117.302 12.8874C116.832 13.3491 116.597 13.929 116.597 14.6268C116.597 15.3246 116.832 15.9043 117.302 16.3662ZM128.839 10.5785C129.738 10.5785 130.464 10.8607 131.018 11.4251C131.571 11.9895 131.848 12.7642 131.848 13.7494V18.4749H130.156V13.9187C130.156 13.3441 129.999 12.9028 129.685 12.5949C129.372 12.2871 128.943 12.1332 128.4 12.1332C127.804 12.1332 127.324 12.3153 126.958 12.6796C126.592 13.0439 126.409 13.6006 126.409 14.3496V18.4749H124.716V10.7786H126.409V11.7637C126.921 10.9736 127.731 10.5785 128.839 10.5785ZM53.8355 24.9398H49.2115V27.9567H53.6788V29.6499H49.2115V34.0214H47.4089V23.2465H53.8355V24.9398ZM55.4187 34.0214V22.7848H57.1116V34.0214H55.4187ZM60.4032 30.8813C60.5286 31.4662 60.816 31.9152 61.2654 32.2282C61.7147 32.5411 62.2633 32.6976 62.9112 32.6976C63.8098 32.6976 64.4839 32.3795 64.9332 31.7433L66.3282 32.5437C65.5551 33.6622 64.4107 34.2214 62.8955 34.2214C61.6206 34.2214 60.5914 33.8393 59.8075 33.0747C59.0238 32.3103 58.6319 31.3431 58.6319 30.1733C58.6319 29.024 59.0186 28.062 59.7919 27.2872C60.5652 26.5124 61.5579 26.125 62.7701 26.125C63.9197 26.125 64.8628 26.5201 65.5994 27.3102C66.3361 28.1005 66.7045 29.0599 66.7045 30.1887C66.7045 30.3631 66.6836 30.5939 66.6418 30.8813H60.4032ZM60.3875 29.5268H64.996C64.881 28.9008 64.6171 28.4287 64.2044 28.1107C63.7916 27.7926 63.3082 27.6335 62.7544 27.6335C62.1275 27.6335 61.605 27.8028 61.187 28.1414C60.7689 28.48 60.5025 28.9419 60.3875 29.5268ZM72.6295 26.125C73.7059 26.125 74.6254 26.5149 75.3884 27.2948C76.1511 28.0748 76.5325 29.0342 76.5325 30.1733C76.5325 31.302 76.1511 32.2589 75.3884 33.044C74.6254 33.829 73.7059 34.2214 72.6295 34.2214C71.4383 34.2214 70.5238 33.7853 69.8865 32.9132V34.0214H68.1936V23.2465H69.8865V27.418C70.5238 26.556 71.4383 26.125 72.6295 26.125ZM70.5918 31.9356C71.0621 32.4026 71.6525 32.636 72.3631 32.636C73.0737 32.636 73.664 32.4026 74.1343 31.9356C74.6045 31.4688 74.8397 30.8813 74.8397 30.1733C74.8397 29.4652 74.6045 28.8777 74.1343 28.4108C73.664 27.9439 73.0737 27.7104 72.3631 27.7104C71.6525 27.7104 71.0621 27.9439 70.5918 28.4108C70.1215 28.8777 69.8865 29.4652 69.8865 30.1733C69.8865 30.8813 70.1215 31.4688 70.5918 31.9356ZM81.7679 34.2214C80.6185 34.2214 79.6414 33.8315 78.8368 33.0516C78.0322 32.2718 77.6298 31.3122 77.6298 30.1733C77.6298 29.0342 78.0322 28.0748 78.8368 27.2948C79.6414 26.5149 80.6185 26.125 81.7679 26.125C82.9279 26.125 83.9075 26.5149 84.707 27.2948C85.5064 28.0748 85.9061 29.0342 85.9061 30.1733C85.9061 31.3122 85.5064 32.2718 84.707 33.0516C83.9075 33.8315 82.9279 34.2214 81.7679 34.2214ZM80.0281 31.9127C80.4983 32.3744 81.0782 32.6053 81.7679 32.6053C82.4576 32.6053 83.0376 32.3744 83.5079 31.9127C83.978 31.4508 84.2132 30.8711 84.2132 30.1733C84.2132 29.4755 83.978 28.8956 83.5079 28.4339C83.0376 27.9721 82.4576 27.7413 81.7679 27.7413C81.0782 27.7413 80.4983 27.9721 80.0281 28.4339C79.5578 28.8956 79.3226 29.4755 79.3226 30.1733C79.3226 30.8711 79.5578 31.4508 80.0281 31.9127ZM87.4423 34.0214V22.7848H89.1352V34.0214H87.4423ZM94.7936 34.2214C93.6442 34.2214 92.6672 33.8315 91.8625 33.0516C91.0579 32.2718 90.6555 31.3122 90.6555 30.1733C90.6555 29.0342 91.0579 28.0748 91.8625 27.2948C92.6672 26.5149 93.6442 26.125 94.7936 26.125C95.9536 26.125 96.9333 26.5149 97.7327 27.2948C98.5321 28.0748 98.9318 29.0342 98.9318 30.1733C98.9318 31.3122 98.5321 32.2718 97.7327 33.0516C96.9333 33.8315 95.9536 34.2214 94.7936 34.2214ZM93.0538 31.9127C93.524 32.3744 94.104 32.6053 94.7936 32.6053C95.4833 32.6053 96.0633 32.3744 96.5336 31.9127C97.0038 31.4508 97.2389 30.8711 97.2389 30.1733C97.2389 29.4755 97.0038 28.8956 96.5336 28.4339C96.0633 27.9721 95.4833 27.7413 94.7936 27.7413C94.104 27.7413 93.524 27.9721 93.0538 28.4339C92.5835 28.8956 92.3484 29.4755 92.3484 30.1733C92.3484 30.8711 92.5835 31.4508 93.0538 31.9127ZM106.706 26.3251H108.368V33.6674C108.368 34.8372 107.976 35.7351 107.192 36.361C106.409 36.987 105.458 37.3 104.34 37.3C102.532 37.3 101.294 36.6791 100.625 35.4375L102.082 34.6063C102.49 35.3964 103.253 35.7915 104.371 35.7915C105.102 35.7915 105.675 35.6042 106.087 35.2297C106.5 34.8552 106.706 34.3343 106.706 33.6674V32.7284C106.069 33.6212 105.16 34.0676 103.979 34.0676C102.871 34.0676 101.936 33.6802 101.173 32.9054C100.411 32.1307 100.029 31.1943 100.029 30.0963C100.029 28.9983 100.411 28.062 101.173 27.2872C101.936 26.5124 102.871 26.125 103.979 26.125C105.16 26.125 106.069 26.5713 106.706 27.4641V26.3251ZM102.435 31.8203C102.911 32.282 103.504 32.5129 104.214 32.5129C104.925 32.5129 105.518 32.282 105.993 31.8203C106.469 31.3585 106.706 30.7838 106.706 30.0963C106.706 29.4087 106.469 28.8342 105.993 28.3723C105.518 27.9106 104.925 27.6797 104.214 27.6797C103.504 27.6797 102.911 27.9106 102.435 28.3723C101.96 28.8342 101.722 29.4087 101.722 30.0963C101.722 30.7838 101.96 31.3585 102.435 31.8203ZM110.343 34.0214V22.7848H112.036V34.0214H110.343ZM120.202 26.3251H121.895V34.0214H120.202V32.9132C119.565 33.7853 118.651 34.2214 117.459 34.2214C116.383 34.2214 115.463 33.829 114.701 33.044C113.938 32.2589 113.556 31.302 113.556 30.1733C113.556 29.0342 113.938 28.0748 114.701 27.2948C115.463 26.5149 116.383 26.125 117.459 26.125C118.651 26.125 119.565 26.556 120.202 27.418V26.3251ZM115.955 31.9356C116.425 32.4026 117.015 32.636 117.726 32.636C118.436 32.636 119.027 32.4026 119.497 31.9356C119.967 31.4688 120.202 30.8813 120.202 30.1733C120.202 29.4652 119.967 28.8777 119.497 28.4108C119.027 27.9439 118.436 27.7104 117.726 27.7104C117.015 27.7104 116.425 27.9439 115.955 28.4108C115.484 28.8777 115.249 29.4652 115.249 30.1733C115.249 30.8813 115.484 31.4688 115.955 31.9356ZM125.563 27.6181C125.992 26.6638 126.796 26.1866 127.977 26.1866V27.9874C127.329 27.9465 126.765 28.0979 126.284 28.4415C125.804 28.7853 125.563 29.3523 125.563 30.1424V34.0214H123.87V26.3251H125.563V27.6181ZM54.6665 49.4139L53.8984 47.2436H49.2274L48.4593 49.4139H46.5L50.4814 38.6391H52.6444L56.6101 49.4139H54.6665ZM49.823 45.5812H53.3028L51.563 40.7171L49.823 45.5812ZM59.1025 43.8418C59.1025 44.0983 59.2461 44.3011 59.5335 44.4499C59.8208 44.5986 60.1709 44.7269 60.5838 44.8346C60.9965 44.9424 61.4119 45.0681 61.8299 45.2117C62.2478 45.3555 62.6006 45.5992 62.8879 45.943C63.1753 46.2868 63.3189 46.7203 63.3189 47.2436C63.3189 47.9825 63.0289 48.5622 62.449 48.983C61.8691 49.4037 61.1402 49.614 60.2623 49.614C59.489 49.614 58.8255 49.455 58.2717 49.1369C57.7179 48.8188 57.3156 48.3775 57.0648 47.8132L58.5225 46.9819C58.7942 47.7208 59.3741 48.0902 60.2623 48.0902C61.1506 48.0902 61.5947 47.8028 61.5947 47.2282C61.5947 46.982 61.451 46.7818 61.1636 46.6279C60.8762 46.474 60.5263 46.3432 60.1135 46.2353C59.7006 46.1276 59.2853 46.002 58.8673 45.8582C58.4494 45.7146 58.0967 45.4761 57.8093 45.1425C57.5219 44.809 57.3782 44.3857 57.3782 43.8726C57.3782 43.1646 57.6525 42.595 58.2011 42.1641C58.7498 41.7331 59.4315 41.5176 60.2467 41.5176C60.8945 41.5176 61.4719 41.6587 61.9787 41.9409C62.4856 42.2231 62.8748 42.6156 63.1465 43.1183L61.7201 43.9034C61.4485 43.3185 60.9573 43.026 60.2467 43.026C59.9228 43.026 59.651 43.0954 59.4315 43.2338C59.2122 43.3724 59.1025 43.575 59.1025 43.8418ZM65.8583 43.8418C65.8583 44.0983 66.0019 44.3011 66.2893 44.4499C66.5767 44.5986 66.9268 44.7269 67.3396 44.8346C67.7523 44.9424 68.1677 45.0681 68.5857 45.2117C69.0037 45.3555 69.3564 45.5992 69.6437 45.943C69.9311 46.2868 70.0747 46.7203 70.0747 47.2436C70.0747 47.9825 69.7847 48.5622 69.2049 48.983C68.6249 49.4037 67.896 49.614 67.0182 49.614C66.2449 49.614 65.5814 49.455 65.0275 49.1369C64.4737 48.8188 64.0714 48.3775 63.8206 47.8132L65.2783 46.9819C65.5501 47.7208 66.1299 48.0902 67.0182 48.0902C67.9064 48.0902 68.3505 47.8028 68.3505 47.2282C68.3505 46.982 68.2068 46.7818 67.9194 46.6279C67.6321 46.474 67.2821 46.3432 66.8693 46.2353C66.4565 46.1276 66.0411 46.002 65.6232 45.8582C65.2052 45.7146 64.8525 45.4761 64.5651 45.1425C64.2778 44.809 64.134 44.3857 64.134 43.8726C64.134 43.1646 64.4084 42.595 64.9569 42.1641C65.5056 41.7331 66.1874 41.5176 67.0025 41.5176C67.6504 41.5176 68.2277 41.6587 68.7346 41.9409C69.2414 42.2231 69.6306 42.6156 69.9023 43.1183L68.4759 43.9034C68.2043 43.3185 67.7131 43.026 67.0025 43.026C66.6786 43.026 66.4069 43.0954 66.1874 43.2338C65.968 43.3724 65.8583 43.575 65.8583 43.8418ZM75.0593 49.614C73.9099 49.614 72.9328 49.2241 72.1282 48.4442C71.3236 47.6644 70.9212 46.7048 70.9212 45.5658C70.9212 44.4268 71.3236 43.4673 72.1282 42.6874C72.9328 41.9075 73.9099 41.5176 75.0593 41.5176C76.2193 41.5176 77.1989 41.9075 77.9984 42.6874C78.7978 43.4673 79.1974 44.4268 79.1974 45.5658C79.1974 46.7048 78.7978 47.6644 77.9984 48.4442C77.1989 49.2241 76.2193 49.614 75.0593 49.614ZM73.3195 47.3052C73.7896 47.7669 74.3696 47.9978 75.0593 47.9978C75.749 47.9978 76.3289 47.7669 76.7992 47.3052C77.2694 46.8434 77.5046 46.2636 77.5046 45.5658C77.5046 44.8681 77.2694 44.2882 76.7992 43.8265C76.3289 43.3646 75.749 43.1338 75.0593 43.1338C74.3696 43.1338 73.7896 43.3646 73.3195 43.8265C72.8492 44.2882 72.614 44.8681 72.614 45.5658C72.614 46.2636 72.8492 46.8434 73.3195 47.3052ZM84.9501 43.3185H83.0064V47.0127C83.0064 47.3308 83.0797 47.5591 83.2259 47.6977C83.3721 47.8363 83.589 47.9131 83.8764 47.9286C84.1637 47.944 84.5217 47.9414 84.9501 47.9209V49.4139C83.6544 49.5679 82.7243 49.4576 82.16 49.0831C81.5958 48.7084 81.3135 48.0184 81.3135 47.0127V43.3185H79.8715V41.7176H81.3135V40.0553L83.0064 39.5628V41.7176H84.9501V43.3185ZM87.7245 43.8418C87.7245 44.0983 87.8681 44.3011 88.1555 44.4499C88.4429 44.5986 88.793 44.7269 89.2058 44.8346C89.6185 44.9424 90.0339 45.0681 90.4519 45.2117C90.8699 45.3555 91.2226 45.5992 91.5099 45.943C91.7973 46.2868 91.9409 46.7203 91.9409 47.2436C91.9409 47.9825 91.6509 48.5622 91.0711 48.983C90.4911 49.4037 89.7622 49.614 88.8844 49.614C88.111 49.614 87.4475 49.455 86.8937 49.1369C86.3399 48.8188 85.9376 48.3775 85.6868 47.8132L87.1445 46.9819C87.4163 47.7208 87.9961 48.0902 88.8844 48.0902C89.7726 48.0902 90.2168 47.8028 90.2168 47.2282C90.2168 46.982 90.073 46.7818 89.7856 46.6279C89.4983 46.474 89.1483 46.3432 88.7355 46.2353C88.3227 46.1276 87.9073 46.002 87.4894 45.8582C87.0714 45.7146 86.7187 45.4761 86.4313 45.1425C86.144 44.809 86.0002 44.3857 86.0002 43.8726C86.0002 43.1646 86.2746 42.595 86.8231 42.1641C87.3718 41.7331 88.0536 41.5176 88.8687 41.5176C89.5166 41.5176 90.0939 41.6587 90.6008 41.9409C91.1076 42.2231 91.4968 42.6156 91.7685 43.1183L90.3421 43.9034C90.0705 43.3185 89.5793 43.026 88.8687 43.026C88.5448 43.026 88.2731 43.0954 88.0536 43.2338C87.8342 43.3724 87.7245 43.575 87.7245 43.8418ZM94.9426 40.2476C94.7284 40.458 94.475 40.5633 94.1825 40.5633C93.8898 40.5633 93.6364 40.458 93.4222 40.2476C93.2079 40.0373 93.1009 39.7885 93.1009 39.5012C93.1009 39.2138 93.2053 38.9649 93.4144 38.7546C93.6234 38.5443 93.8793 38.439 94.1825 38.439C94.4855 38.439 94.7415 38.5443 94.9505 38.7546C95.1595 38.9649 95.2639 39.2138 95.2639 39.5012C95.2639 39.7885 95.1569 40.0373 94.9426 40.2476ZM93.336 49.4139V41.7176H95.0289V49.4139H93.336ZM103.195 41.7176H104.888V49.4139H103.195V48.3057C102.558 49.1779 101.644 49.614 100.452 49.614C99.376 49.614 98.4563 49.2215 97.6936 48.4365C96.9308 47.6515 96.5492 46.6946 96.5492 45.5658C96.5492 44.4268 96.9308 43.4673 97.6936 42.6874C98.4563 41.9075 99.376 41.5176 100.452 41.5176C101.644 41.5176 102.558 41.9485 103.195 42.8106V41.7176ZM98.9476 47.3282C99.4177 47.7952 100.008 48.0286 100.719 48.0286C101.429 48.0286 102.02 47.7952 102.49 47.3282C102.96 46.8613 103.195 46.2738 103.195 45.5658C103.195 44.8577 102.96 44.2702 102.49 43.8033C102.02 43.3365 101.429 43.103 100.719 43.103C100.008 43.103 99.4177 43.3365 98.9476 43.8033C98.4773 44.2702 98.2421 44.8577 98.2421 45.5658C98.2421 46.2738 98.4773 46.8613 98.9476 47.3282ZM111.237 43.3185H109.293V47.0127C109.293 47.3308 109.366 47.5591 109.512 47.6977C109.659 47.8363 109.875 47.9131 110.163 47.9286C110.45 47.944 110.808 47.9414 111.237 47.9209V49.4139C109.941 49.5679 109.011 49.4576 108.446 49.0831C107.882 48.7084 107.6 48.0184 107.6 47.0127V43.3185H106.158V41.7176H107.6V40.0553L109.293 39.5628V41.7176H111.237V43.3185ZM114.011 43.8418C114.011 44.0983 114.155 44.3011 114.442 44.4499C114.729 44.5986 115.079 44.7269 115.492 44.8346C115.905 44.9424 116.32 45.0681 116.738 45.2117C117.156 45.3555 117.509 45.5992 117.796 45.943C118.084 46.2868 118.227 46.7203 118.227 47.2436C118.227 47.9825 117.937 48.5622 117.358 48.983C116.778 49.4037 116.049 49.614 115.171 49.614C114.397 49.614 113.734 49.455 113.18 49.1369C112.626 48.8188 112.224 48.3775 111.973 47.8132L113.431 46.9819C113.703 47.7208 114.283 48.0902 115.171 48.0902C116.059 48.0902 116.503 47.8028 116.503 47.2282C116.503 46.982 116.359 46.7818 116.072 46.6279C115.785 46.474 115.435 46.3432 115.022 46.2353C114.609 46.1276 114.194 46.002 113.776 45.8582C113.358 45.7146 113.005 45.4761 112.718 45.1425C112.43 44.809 112.287 44.3857 112.287 43.8726C112.287 43.1646 112.561 42.595 113.11 42.1641C113.658 41.7331 114.34 41.5176 115.155 41.5176C115.803 41.5176 116.38 41.6587 116.887 41.9409C117.394 42.2231 117.783 42.6156 118.055 43.1183L116.629 43.9034C116.357 43.3185 115.866 43.026 115.155 43.026C114.831 43.026 114.56 43.0954 114.34 43.2338C114.121 43.3724 114.011 43.575 114.011 43.8418ZM121.229 40.2476C121.015 40.458 120.761 40.5633 120.469 40.5633C120.176 40.5633 119.923 40.458 119.709 40.2476C119.494 40.0373 119.387 39.7885 119.387 39.5012C119.387 39.2138 119.492 38.9649 119.701 38.7546C119.91 38.5443 120.166 38.439 120.469 38.439C120.772 38.439 121.028 38.5443 121.237 38.7546C121.446 38.9649 121.55 39.2138 121.55 39.5012C121.55 39.7885 121.443 40.0373 121.229 40.2476ZM119.622 49.4139V41.7176H121.315V49.4139H119.622ZM128.557 41.7176H130.36L127.35 49.6602C126.598 51.651 125.323 52.5951 123.525 52.4924V50.9378C124.058 50.9686 124.487 50.8583 124.811 50.6069C125.135 50.3554 125.401 49.963 125.61 49.4293L125.689 49.2754L122.366 41.7176H124.215L126.551 47.3052L128.557 41.7176ZM137.319 41.7176H139.012V49.4139H137.319V48.3057C136.682 49.1779 135.767 49.614 134.576 49.614C133.5 49.614 132.58 49.2215 131.817 48.4365C131.055 47.6515 130.673 46.6946 130.673 45.5658C130.673 44.4268 131.055 43.4673 131.817 42.6874C132.58 41.9075 133.5 41.5176 134.576 41.5176C135.767 41.5176 136.682 41.9485 137.319 42.8106V41.7176ZM133.071 47.3282C133.542 47.7952 134.132 48.0286 134.843 48.0286C135.553 48.0286 136.144 47.7952 136.614 47.3282C137.084 46.8613 137.319 46.2738 137.319 45.5658C137.319 44.8577 137.084 44.2702 136.614 43.8033C136.144 43.3365 135.553 43.103 134.843 43.103C134.132 43.103 133.542 43.3365 133.071 43.8033C132.601 44.2702 132.366 44.8577 132.366 45.5658C132.366 46.2738 132.601 46.8613 133.071 47.3282ZM142.461 43.8418C142.461 44.0983 142.604 44.3011 142.892 44.4499C143.179 44.5986 143.529 44.7269 143.942 44.8346C144.355 44.9424 144.77 45.0681 145.188 45.2117C145.606 45.3555 145.959 45.5992 146.246 45.943C146.533 46.2868 146.677 46.7203 146.677 47.2436C146.677 47.9825 146.387 48.5622 145.807 48.983C145.227 49.4037 144.498 49.614 143.62 49.614C142.847 49.614 142.184 49.455 141.63 49.1369C141.076 48.8188 140.674 48.3775 140.423 47.8132L141.881 46.9819C142.152 47.7208 142.732 48.0902 143.62 48.0902C144.509 48.0902 144.953 47.8028 144.953 47.2282C144.953 46.982 144.809 46.7818 144.522 46.6279C144.234 46.474 143.884 46.3432 143.472 46.2353C143.059 46.1276 142.643 46.002 142.225 45.8582C141.807 45.7146 141.455 45.4761 141.167 45.1425C140.88 44.809 140.736 44.3857 140.736 43.8726C140.736 43.1646 141.011 42.595 141.559 42.1641C142.108 41.7331 142.79 41.5176 143.605 41.5176C144.253 41.5176 144.83 41.6587 145.337 41.9409C145.844 42.2231 146.233 42.6156 146.505 43.1183L145.078 43.9034C144.807 43.3185 144.315 43.026 143.605 43.026C143.281 43.026 143.009 43.0954 142.79 43.2338C142.57 43.3724 142.461 43.575 142.461 43.8418ZM149.679 40.2476C149.464 40.458 149.211 40.5633 148.919 40.5633C148.626 40.5633 148.372 40.458 148.158 40.2476C147.944 40.0373 147.837 39.7885 147.837 39.5012C147.837 39.2138 147.941 38.9649 148.15 38.7546C148.359 38.5443 148.615 38.439 148.919 38.439C149.222 38.439 149.478 38.5443 149.687 38.7546C149.896 38.9649 150 39.2138 150 39.5012C150 39.7885 149.893 40.0373 149.679 40.2476ZM148.072 49.4139V41.7176H149.765V49.4139H148.072Z" fill="#222E5B"/>
</svg>
